<?xml version="1.0" encoding="UTF-8"?>
<svg width="40px" height="40px" viewBox="0 0 40 40" version="1.1" xmlns="http://www.w3.org/2000/svg" xmlns:xlink="http://www.w3.org/1999/xlink">
    <!-- Generator: Sketch 55.1 (78136) - https://sketchapp.com -->
    <title>tattle_monogram</title>
    <desc>Created with Sketch.</desc>
    <g id="Screens" stroke="none" stroke-width="1" fill="none" fill-rule="evenodd">
        <g id="Artboard" transform="translate(-12.000000, -26.000000)" fill-rule="nonzero">
            <g id="tattle_monogram" transform="translate(12.000000, 26.000000)">
                <g id="XMLID_623_">
                    <path d="M39.6721311,19.8032787 C39.6721311,8.98360656 30.8852459,0.196721311 20.0655738,0.196721311 C9.18032787,0.196721311 0.393442623,8.98360656 0.393442623,19.8032787 C0.393442623,30.4262295 8.85245902,39.0819672 19.4098361,39.4098361 L19.4098361,27.9344262 L21.704918,27.9344262 L21.704918,39.4098361 C31.7377049,38.557377 39.6721311,30.0983607 39.6721311,19.8032787 Z" id="XMLID_624_" fill="#2e5b95"></path>
                    <path d="M19.4098361,27.9344262 L19.4098361,39.4754098 C19.6065574,39.4754098 19.8032787,39.4754098 20,39.4754098 C20.5901639,39.4754098 21.1147541,39.4754098 21.6393443,39.4098361 L21.6393443,27.9344262 L19.4098361,27.9344262 Z" id="XMLID_626_" fill="#FFFFFF"></path>
                </g>
                <g id="XMLID_617_" transform="translate(12.244898, 8.163265)" fill="#FFFFFF">
                    <path d="M15.0857143,15.5102041 C14.5632653,15.5102041 14.1061224,15.0578231 14.1061224,14.5408163 L14.1061224,8.27210884 C14.1061224,4.97619048 11.3632653,2.26190476 8.03265306,2.26190476 C4.70204082,2.26190476 1.95918367,4.97619048 1.95918367,8.27210884 L1.95918367,14.5408163 C1.95918367,15.0578231 1.50204082,15.5102041 0.979591837,15.5102041 C0.457142857,15.5102041 0,15.0578231 0,14.5408163 L0,8.27210884 C0,3.87755102 3.59183673,0.323129252 8.03265306,0.323129252 C12.4734694,0.323129252 16.0653061,3.87755102 16.0653061,8.27210884 L16.0653061,14.5408163 C16.0653061,15.0578231 15.6734694,15.5102041 15.0857143,15.5102041 Z" id="XMLID_45_"></path>
                </g>
                <g id="XMLID_616_" transform="translate(16.326531, 16.326531)" fill="#FFFFFF">
                    <path d="M2.95133438,6.20408163 C2.70015699,6.20408163 2.44897959,6.13877551 2.26059655,5.94285714 L0.313971743,3.91836735 C-0.0627943485,3.52653061 -0.0627943485,2.93877551 0.313971743,2.54693878 C0.690737834,2.15510204 1.25588697,2.15510204 1.63265306,2.54693878 L2.95133438,3.91836735 L6.3422292,0.391836735 C6.71899529,0 7.28414443,0 7.66091052,0.391836735 C8.03767661,0.783673469 8.03767661,1.37142857 7.66091052,1.76326531 L3.57927786,6.00816327 C3.45368917,6.13877551 3.20251177,6.20408163 2.95133438,6.20408163 Z" id="XMLID_44_"></path>
                </g>
                <g id="XMLID_537_" transform="translate(4.081633, 16.326531)" fill="#FFFFFF">
                    <path d="M15.9183673,12.244898 C7.09693878,12.244898 0.397959184,9.34479055 0.397959184,5.47798067 C0.397959184,3.60902256 1.98979592,1.86895811 4.84183673,0.644468314 C4.9744898,0.580021482 5.04081633,0.580021482 5.17346939,0.515574651 C5.70408163,0.322234157 6.23469388,0.515574651 6.5,1.0311493 C6.69897959,1.54672395 6.5,2.0622986 5.96938776,2.32008593 L5.70408163,2.44897959 C3.64795918,3.35123523 2.45408163,4.44683136 2.45408163,5.47798067 C2.45408163,7.73361976 7.95918367,10.311493 15.9183673,10.311493 C23.877551,10.311493 29.4489796,7.73361976 29.4489796,5.47798067 C29.4489796,4.44683136 28.255102,3.35123523 26.1989796,2.44897959 C25.6683673,2.2556391 25.4693878,1.67561762 25.6683673,1.16004296 C25.8673469,0.644468314 26.4642857,0.45112782 26.994898,0.644468314 C29.8469388,1.86895811 31.4387755,3.60902256 31.4387755,5.47798067 C31.4387755,9.34479055 24.8061224,12.244898 15.9183673,12.244898 Z" id="XMLID_43_"></path>
                </g>
            </g>
        </g>
    </g>
</svg>